<!-- icon666.com - MILLIONS OF FREE VECTOR ICONS --><svg id="Layer_1" enable-background="new 0 0 512 512" viewBox="0 0 512 512" xmlns="http://www.w3.org/2000/svg" xmlns:xlink="http://www.w3.org/1999/xlink"><linearGradient id="SVGID_1_" gradientUnits="userSpaceOnUse" x1="25.951" x2="486.05" y1="486.05" y2="25.951"><stop offset="0" stop-color="#ffe400"></stop><stop offset="1" stop-color="#eb5529"></stop></linearGradient><path d="m423.5 0h-335c-48.799 0-88.5 39.701-88.5 88.5v335.001c0 48.799 39.701 88.499 88.5 88.499h335c48.799 0 88.5-39.7 88.5-88.499v-335.001c0-48.799-39.701-88.5-88.5-88.5zm-17.5 269h-137v137c0 7.18-5.82 13-13 13s-13-5.82-13-13v-137h-136.999c-7.18 0-13-5.82-13-13s5.82-13 13-13h136.999v-136.999c0-7.18 5.82-13 13-13s13 5.82 13 13v136.999h137c7.18 0 13 5.82 13 13s-5.82 13-13 13z" fill="url(#SVGID_1_)"></path></svg>